# xmcd
#
# Track frame offsets:
#	150
#	13647
#	27199
#	41539
#	51996
#	64289
#	78172
#	92032
#	106689
#	115817
#	130132
#	141092
#	157467
#	169152
#	178307
#	190992
# Disc length: 2698 seconds
# Revision: 1
# Processed by: cddbd v1.5.1PL0 Copyright (c) Steve Scherf et al.
#
# Submitted via: libkcddb 0.21
#
DISCID=dc0a8810
DTITLE=Vojta Kiďák Tomáško and Lubomír Ríša Melichar - Hvězdopad
DYEAR=2000
DGENRE=Unknown
TTITLE0=Panenko Maria
TTITLE1=Zatracení přátelé
TTITLE2=Nevěsty
TTITLE3=Kanec Jůza
TTITLE4=Čistý stůl
TTITLE5=Blues elegána
TTITLE6=Něco o holkách
TTITLE7=Maringotka
TTITLE8=Hřiště
TTITLE9=Hvězdopad
TTITLE10=Hospody třetího řádu
TTITLE11=Chaloupky
TTITLE12=Černé vrány
TTITLE13=Markovi
TTITLE14=Nechme to tak
TTITLE15=Všem svým láskám
EXTD=
EXTT0=
EXTT1=
EXTT2=
EXTT3=
EXTT4=
EXTT5=
EXTT6=
EXTT7=
EXTT8=
EXTT9=
EXTT10=
EXTT11=
EXTT12=
EXTT13=
EXTT14=
EXTT15=
PLAYORDER=
